<svg width="116" height="40" viewBox="0 0 116 40" fill="none" xmlns="http://www.w3.org/2000/svg">
<g clip-path="url(#clip0_803_2)">
<path d="M8.4 15.1H3.2V18.4H9V21H0V7H8.7V9.6H3.2V12.5H8.4V15.1Z" fill="black"/>
<path d="M11 17.6998C11.9 18.0998 13.2 18.5998 14.5 18.5998C16 18.5998 16.7 17.9998 16.7 17.0998C16.7 16.1998 16 15.6998 14.4 15.0998C12.1 14.2998 10.6 12.9998 10.6 10.9998C10.6 8.5998 12.6 6.7998 15.9 6.7998C17.5 6.7998 18.6 7.0998 19.5 7.4998L18.7 9.9998C18.1 9.6998 17.1 9.2998 15.8 9.2998C14.5 9.2998 13.8 9.8998 13.8 10.5998C13.8 11.4998 14.6 11.8998 16.4 12.5998C18.9 13.4998 20 14.7998 20 16.7998C20 19.0998 18.2 21.0998 14.3 21.0998C12.7 21.0998 11.1 20.6998 10.3 20.1998L11 17.6998Z" fill="black"/>
<path d="M31.7999 20.5998C31.1999 20.8998 29.8999 21.1998 28.1999 21.1998C23.3999 21.1998 20.8999 18.1998 20.8999 14.1998C20.8999 9.3998 24.2999 6.7998 28.5999 6.7998C30.1999 6.7998 31.4999 7.0998 32.0999 7.3998L31.4999 9.8998C30.8999 9.5998 29.9999 9.3998 28.7999 9.3998C26.2999 9.3998 24.2999 10.8998 24.2999 13.9998C24.2999 16.7998 25.9999 18.5998 28.7999 18.5998C29.7999 18.5998 30.7999 18.3998 31.3999 18.0998L31.7999 20.5998Z" fill="black"/>
<path d="M36.7001 7V15.1C36.7001 17.5 37.6001 18.7 39.2001 18.7C40.9001 18.7 41.8001 17.5 41.8001 15.1V7H45.0001V14.9C45.0001 19.2 42.8001 21.3 39.2001 21.3C35.7001 21.3 33.6001 19.3 33.6001 14.9V7H36.7001Z" fill="black"/>
<path d="M55.4 15.1H50.2V18.4H56V21H47V7H55.7V9.6H50.2V12.5H55.4V15.1Z" fill="black"/>
<path d="M58 7H61.2V18.3H67V21H58V7Z" fill="black"/>
<path d="M72.5 17.4L71.5 21H68.2L72.5 7H76.7L81 21H77.6L76.5 17.4H72.5ZM76.1 15L75.2 12C75 11.2 74.7 10.1 74.5 9.3C74.3 10.1 74.1 11.2 73.9 12L73 15H76.1Z" fill="black"/>
<path d="M85 0V28H100L116 40V0H85ZM97.1 21H93.9V7H97.1V21ZM109.4 10.2H105.8V21H102.6V10.2H99V7H109.4V10.2Z" fill="#E74C3C"/>
</g>
<defs>
<clipPath id="clip0_803_2">
<rect width="116" height="40" fill="white"/>
</clipPath>
</defs>
</svg>
